# xmcd
# Track frame offsets:
# 150
# 12367
# 26694
# 42017
# 53867
# 66830
# 77197
# 91342
# 107795
# 121047
# 142405
# 157422
#
# Disc length: 2341 seconds
# Revision: 0
# Processed by: cddbd v1.4PL0 Copyright (c) Steve Scherf et al.
# Submitted via: VisiTrax 2.9.5.180 - For more info visit www.synapsa.com
#
DISCID=a509230c
DTITLE=Karen Pendley - I'll be there
DYEAR=1900
DGENRE=
TTITLE0=Karen Pendley - I'll be there
TTITLE1=Karen Pendley - Fool such as I
TTITLE2=Karen Pendley - Until now
TTITLE3=Karen Pendley - I needed you
TTITLE4=Karen Pendley - You take me for granted
TTITLE5=Karen Pendley - In care of the blues
TTITLE6=Karen Pendley - Misery
TTITLE7=Karen Pendley/Ver Gosdin - If I needed you
TTITLE8=Karen Pendley - Blackberry blossom
TTITLE9=Karen Pendley - No relief in sight
TTITLE10=Karen Pendley - Heart of a clown
TTITLE11=Karen Pendley - My funny valentine
EXTD=
EXTT0=
EXTT1=
EXTT2=
EXTT3=
EXTT4=
EXTT5=
EXTT6=
EXTT7=
EXTT8=
EXTT9=
EXTT10=
EXTT11=
PLAYORDER=
